<?xml version="1.0" standalone="no"?>
<!DOCTYPE svg PUBLIC "-//W3C//DTD SVG 20010904//EN"
 "http://www.w3.org/TR/2001/REC-SVG-20010904/DTD/svg10.dtd">
<svg version="1.0" xmlns="http://www.w3.org/2000/svg"
 width="655.000000pt" height="393.000000pt" viewBox="0 0 655.000000 393.000000"
 preserveAspectRatio="xMidYMid meet">

<g transform="translate(0.000000,393.000000) scale(0.100000,-0.100000)"
fill="#000000" stroke="none">
<path d="M3216 3535 c-3 -9 -6 -79 -6 -155 0 -109 3 -140 15 -150 8 -7 21 -10
30 -7 11 5 15 30 17 113 l3 108 70 -107 c68 -105 102 -134 126 -110 5 5 8 75
7 164 -3 150 -4 154 -25 157 -28 4 -32 -12 -35 -128 l-3 -85 -70 105 c-56 84
-75 106 -96 108 -17 2 -29 -3 -33 -13z"/>
<path d="M2745 3366 c-776 -200 -1405 -779 -1670 -1536 -36 -105 -85 -289 -85
-323 0 -14 6 -18 27 -15 25 3 28 10 60 132 153 585 523 1087 1033 1406 211
132 525 258 748 301 59 11 62 13 62 40 0 38 -10 37 -175 -5z"/>
<path d="M3326 2963 c-3 -60 -9 -142 -13 -184 l-6 -76 -116 -12 c-156 -16
-244 -35 -386 -82 -413 -139 -761 -447 -954 -843 -92 -188 -143 -381 -162
-611 -6 -77 -12 -141 -13 -141 0 -1 -89 -7 -196 -14 -107 -7 -198 -16 -203
-19 -4 -4 79 -13 185 -20 106 -7 200 -14 209 -17 12 -3 18 -23 23 -77 17 -171
80 -387 163 -552 51 -103 95 -175 106 -175 4 0 19 25 34 55 l27 54 -61 128
c-83 174 -128 322 -148 496 l-7 57 48 0 c27 0 128 -7 224 -15 96 -8 198 -15
225 -15 l51 0 42 86 42 85 -82 -6 c-425 -33 -544 -41 -550 -36 -10 9 9 225 28
318 119 586 564 1047 1147 1188 113 28 296 50 307 38 4 -4 2 -87 -6 -183 -29
-387 -32 -435 -28 -439 2 -2 37 18 79 45 l75 49 0 60 c0 33 -7 137 -15 230 -8
94 -15 187 -15 208 l0 39 63 -6 c181 -19 316 -50 447 -102 l88 -35 56 31 c31
18 56 35 56 40 0 10 -142 74 -232 104 -108 37 -239 64 -371 77 l-117 12 -4 31
c-3 17 -10 98 -16 180 -6 83 -12 151 -14 153 -2 2 -6 -45 -10 -104z"/>
<path d="M4964 2903 c-82 -53 -246 -158 -364 -233 -118 -75 -309 -198 -425
-272 -115 -74 -349 -224 -520 -333 -551 -352 -700 -448 -717 -460 -15 -10 7
-33 172 -183 103 -94 197 -176 208 -183 16 -10 45 5 226 121 114 73 209 131
211 129 2 -2 -48 -103 -111 -223 l-115 -220 23 -22 c72 -73 364 -331 369 -328
4 2 74 133 157 291 174 334 835 1602 959 1841 47 90 83 165 81 167 -2 3 -71
-39 -154 -92z"/>
<path d="M2360 1951 c0 -5 3 -11 8 -13 5 -2 289 -329 318 -367 5 -6 63 43 61
51 -4 13 -387 339 -387 329z"/>
<path d="M4694 1878 l-30 -61 47 -96 c58 -117 101 -242 128 -378 24 -114 39
-308 25 -315 -5 -2 -108 4 -229 13 -121 10 -248 18 -282 18 l-63 1 -41 -81
c-22 -45 -38 -83 -35 -86 3 -3 108 2 233 11 125 10 270 20 322 23 l94 6 -7
-77 c-22 -248 -151 -552 -328 -772 l-67 -84 78 0 79 0 39 53 c177 237 286 509
322 801 5 43 15 82 21 86 11 7 309 30 379 30 19 0 31 3 27 7 -4 4 -98 14 -209
23 l-202 15 -7 105 c-13 213 -54 393 -129 569 -37 85 -110 225 -128 243 -4 4
-20 -20 -37 -54z"/>
<path d="M684 1147 c-3 -8 12 -81 33 -163 37 -145 39 -149 66 -152 33 -4 42
14 77 151 13 48 25 86 27 83 2 -2 18 -55 36 -117 30 -107 34 -114 59 -117 18
-2 30 3 36 15 17 34 74 283 68 299 -3 9 -15 14 -28 12 -20 -3 -26 -16 -48
-113 -29 -124 -26 -125 -66 25 -20 77 -29 90 -60 90 -29 0 -31 -3 -64 -123
-16 -56 -29 -100 -30 -97 -1 3 -14 52 -28 110 -24 92 -30 105 -50 108 -12 2
-24 -3 -28 -11z"/>
<path d="M5613 1153 c-10 -3 -13 -45 -13 -158 0 -130 2 -154 16 -159 31 -12
211 -7 222 7 21 25 -3 36 -88 39 l-85 3 -3 48 -3 47 81 0 c65 0 82 3 87 16 9
25 -16 34 -95 34 l-73 0 3 38 3 37 83 3 c64 2 84 6 89 18 3 9 0 20 -8 25 -15
9 -195 11 -216 2z"/>
<path d="M5646 662 c-3 -5 -16 -58 -30 -118 -32 -145 -78 -284 -137 -423 -27
-62 -49 -115 -49 -117 0 -2 13 -4 30 -4 25 0 33 7 53 48 33 64 91 219 121 322
35 116 68 278 61 290 -7 12 -42 13 -49 2z"/>
<path d="M3913 408 c-18 -11 -33 -24 -33 -28 0 -8 399 -356 429 -374 8 -5 -67
86 -168 202 -100 116 -185 213 -189 215 -4 2 -22 -5 -39 -15z"/>
<path d="M3351 47 l-65 -42 63 -3 c35 -2 65 -1 67 0 8 9 16 88 8 88 -5 0 -38
-19 -73 -43z"/>
</g>
</svg>
